<?xml version="1.0" encoding="UTF-8" standalone="no"?><!-- Generator: Gravit.io --><svg xmlns="http://www.w3.org/2000/svg" xmlns:xlink="http://www.w3.org/1999/xlink" style="isolation:isolate" viewBox="0 0 15.625 25" width="15.625pt" height="25pt"><path d=" M 13.281 0 L 2.344 0 C 1.05 0 0 1.05 0 2.344 L 0 22.656 C 0 23.95 1.05 25 2.344 25 L 13.281 25 C 14.575 25 15.625 23.95 15.625 22.656 L 15.625 2.344 C 15.625 1.05 14.575 0 13.281 0 Z  M 7.813 23.438 C 6.948 23.438 6.25 22.739 6.25 21.875 C 6.25 21.011 6.948 20.313 7.813 20.313 C 8.677 20.313 9.375 21.011 9.375 21.875 C 9.375 22.739 8.677 23.438 7.813 23.438 Z  M 13.281 18.164 C 13.281 18.486 13.018 18.75 12.695 18.75 L 2.93 18.75 C 2.607 18.75 2.344 18.486 2.344 18.164 L 2.344 2.93 C 2.344 2.607 2.607 2.344 2.93 2.344 L 12.695 2.344 C 13.018 2.344 13.281 2.607 13.281 2.93 L 13.281 18.164 Z " fill="rgb(255,255,255)"/></svg>